<svg width="24" height="9" viewBox="0 0 24 9" fill="none" xmlns="http://www.w3.org/2000/svg">
<path id="Vector" d="M19.4462 8.14103C19.3383 8.25602 19.1876 8.32124 19.0299 8.32124C18.8722 8.32124 18.7216 8.25602 18.6136 8.14103C18.4987 8.03312 18.4334 7.88245 18.4334 7.72476C18.4334 7.56707 18.4987 7.4164 18.6136 7.30849L21.1588 4.7514H1.18975C0.861321 4.7514 0.595078 4.48516 0.595078 4.15673C0.595078 3.8283 0.861321 3.56206 1.18975 3.56206H21.1588L18.6136 1.00497C18.3837 0.775065 18.3837 0.402324 18.6136 0.172425C18.8435 -0.0574753 19.2163 -0.0574748 19.4462 0.172426L23.0142 3.74046C23.0744 3.79071 23.1197 3.85654 23.145 3.93075C23.2045 4.07553 23.2045 4.23792 19.4462 8.14103Z" fill="#2ECF81"/>
</svg>
